{"accessors" : [{"bufferView" : 0, "byteOffset" : 0, "componentType" : 5123, "count" : 4212, "type" : "SCALAR", "max" : [826], "min" : [0]}, {"bufferView" : 1, "byteOffset" : 0, "componentType" : 5126, "count" : 827, "type" : "VEC3", "max" : [5.774756908416748, 17.375598907470703, 1.7009010314941406], "min" : [-5.774756908416748, 1.0213580131530762, -1.7009010314941406]}, {"bufferView" : 1, "byteOffset" : 12, "componentType" : 5126, "count" : 827, "type" : "VEC2", "max" : [0.9960939884185791, -0.044502001255750656], "min" : [0.0039059999398887157, -0.9253050088882446]}, {"bufferView" : 1, "byteOffset" : 20, "componentType" : 5126, "count" : 827, "type" : "VEC3", "max" : [0.999171793460846, 1.0000044107437134, 0.9950430989265442], "min" : [-0.999171793460846, -1.0000044107437134, -0.9950430989265442]}], "asset" : {"generator" : "Aspose.3D 21.1", "version" : "2.0"}, "buffers" : [{"uri" : "buffer.bin", "byteLength" : 143216}], "bufferViews" : [{"buffer" : 0, "byteOffset" : 0, "byteLength" : 8424, "target" : 34963}, {"buffer" : 0, "byteOffset" : 8428, "byteLength" : 134784, "byteStride" : 32, "target" : 34962}], "meshes" : [{"primitives" : [{"attributes" : {"POSITION" : 1, "TEXCOORD_0" : 2, "NORMAL" : 3}, "indices" : 0, "mode" : 4}]}], "nodes" : [{"mesh" : 0, "name" : "Geo_Marker"}], "scene" : 0, "scenes" : [{"nodes" : [0]}]}